<svg id="组_1_拷贝" data-name="组 1 拷贝" xmlns="http://www.w3.org/2000/svg" width="1000" height="1000" viewBox="0 0 1000 1000">
  <metadata><?xpacket begin="﻿" id="W5M0MpCehiHzreSzNTczkc9d"?>
<x:xmpmeta xmlns:x="adobe:ns:meta/" x:xmptk="Adobe XMP Core 5.6-c142 79.160924, 2017/07/13-01:06:39        ">
   <rdf:RDF xmlns:rdf="http://www.w3.org/1999/02/22-rdf-syntax-ns#">
      <rdf:Description rdf:about=""/>
   </rdf:RDF>
</x:xmpmeta>
                                                                                                    
                                                                                                    
                                                                                                    
                                                                                                    
                                                                                                    
                                                                                                    
                                                                                                    
                                                                                                    
                                                                                                    
                                                                                                    
                                                                                                    
                                                                                                    
                                                                                                    
                                                                                                    
                                                                                                    
                                                                                                    
                                                                                                    
                                                                                                    
                                                                                                    
                                                                                                    
                           
<?xpacket end="w"?></metadata>
<defs>
    <style>
      .cls-1 {
        fill: none;
        stroke: #000;
        stroke-width: 72px;
      }

      .cls-2 {
        fill-rule: evenodd;
      }
    </style>
  </defs>
  <rect id="矩形_1" data-name="矩形 1" class="cls-1" width="1000" height="1000"/>
  <path id="_0" data-name="0" class="cls-2" d="M200.116,117.534q-3.593-13.824-10.233-22.806a41.153,41.153,0,0,0-16-13.281,49.244,49.244,0,0,0-20.792-4.3q-13.173,0-23.078,5.28a45.99,45.99,0,0,0-16.493,14.914,70.413,70.413,0,0,0-9.906,23.132,124.879,124.879,0,0,0-3.32,29.828q0,18.941,3.592,32.766t10.233,22.752a41.288,41.288,0,0,0,16,13.226,49.239,49.239,0,0,0,20.793,4.3q13.279,0,23.132-5.28a46.589,46.589,0,0,0,16.492-14.913,68.961,68.961,0,0,0,9.906-23.079,126.141,126.141,0,0,0,3.266-29.772Q203.708,131.359,200.116,117.534Zm-17.853,57.75a58.1,58.1,0,0,1-6.532,17.58,29.989,29.989,0,0,1-10.287,10.669A25.806,25.806,0,0,1,152,207.125a26.24,26.24,0,0,1-10.287-1.905,25.964,25.964,0,0,1-8.056-5.334,31.874,31.874,0,0,1-6.041-8.219,55.867,55.867,0,0,1-4.137-10.451l60.2-44.741q0.327,3.486.6,7.131t0.272,7.348A115.3,115.3,0,0,1,182.263,175.284Zm-60.526-49.967a58.9,58.9,0,0,1,6.532-17.635A29.9,29.9,0,0,1,138.556,96.96a26.068,26.068,0,0,1,31.406,3.429,32.137,32.137,0,0,1,5.987,7.892,50.972,50.972,0,0,1,4.137,10.124l-60.2,44.523q-0.327-3.156-.381-6.531t-0.055-6.75A115.325,115.325,0,0,1,121.737,125.317Z"/>
  <path id="F" class="cls-2" d="M892.649,772.332H812.42V914.611h19.813V851.255h57.259v-16.22H832.233V788.879h60.416V772.332Z"/>
  <path id="E" class="cls-2" d="M661.458,898.065h-61.5V849.078h59.11V832.749h-59.11V788.661h61.505V772.332H580.576V914.611h80.882V898.065Z"/>
  <path id="D" class="cls-2" d="M420.964,789.466q-16.386-17.145-49.695-17.146H334.584V914.6h30.48a104.49,104.49,0,0,0,24.276-2.558,69.166,69.166,0,0,0,18.724-7.239,51.236,51.236,0,0,0,13.607-11.267,58.77,58.77,0,0,0,9.035-14.641,75.213,75.213,0,0,0,5.062-17.418,117.769,117.769,0,0,0,1.579-19.6Q437.347,806.612,420.964,789.466ZM368.439,897.835H353.961V788.649h16.655a65.271,65.271,0,0,1,20.466,2.885,33.021,33.021,0,0,1,14.478,9.308q5.769,6.423,8.6,16.873t2.83,25.582q0,54.538-48.551,54.538h0Z"/>
  <path id="C" class="cls-2" d="M198.513,890.977A81.634,81.634,0,0,1,182.4,896.91a71.141,71.141,0,0,1-17.526,2.122q-21.665,0-32.875-14.042T120.788,843.3a82.65,82.65,0,0,1,3.048-23.46,50.94,50.94,0,0,1,8.709-17.417,37.5,37.5,0,0,1,13.771-10.886,42.611,42.611,0,0,1,18.125-3.756,69.276,69.276,0,0,1,18.07,2.232,72.251,72.251,0,0,1,16,6.477v-19.05a77.139,77.139,0,0,0-16.328-5.171,94.514,94.514,0,0,0-18.4-1.687,64.166,64.166,0,0,0-26.343,5.225,56.075,56.075,0,0,0-20.031,14.859,67.207,67.207,0,0,0-12.736,23.459,100.3,100.3,0,0,0-4.463,30.916q0,35.271,16.165,53.287t46.32,18.016a92.688,92.688,0,0,0,35.814-7.076V890.977Z"/>
  <path id="B" class="cls-2" d="M896.168,627.311a30.937,30.937,0,0,0-6.205-9.8,32.823,32.823,0,0,0-9.09-6.749,41.007,41.007,0,0,0-10.94-3.7q12.409-4.026,17.907-12.3t5.5-19.813q0-34.617-47.571-34.617H805.053V682.611h37.229a87.97,87.97,0,0,0,23.133-2.83,52.79,52.79,0,0,0,17.744-8.273,37.315,37.315,0,0,0,11.321-13.336,39.767,39.767,0,0,0,3.974-18.125A33.755,33.755,0,0,0,896.168,627.311Zm-25.092-39.244a20.01,20.01,0,0,1-5.988,7.348,25.981,25.981,0,0,1-9.253,4.354,47.347,47.347,0,0,1-12.029,1.416H824.43V556.661h20.03a50.7,50.7,0,0,1,14.042,1.633,23.875,23.875,0,0,1,8.818,4.409,14.847,14.847,0,0,1,4.572,6.64,25.5,25.5,0,0,1,1.306,8.219A24.006,24.006,0,0,1,871.076,588.067Zm-1.361,72.01q-8.164,6.206-24.82,6.205H824.43V617.3h19.812a55.911,55.911,0,0,1,14.1,1.633,33.548,33.548,0,0,1,10.614,4.626,20.366,20.366,0,0,1,6.64,7.348,20.758,20.758,0,0,1,2.286,9.8Q877.879,653.873,869.715,660.077Z"/>
  <path id="A" class="cls-2" d="M634.1,540.332H607.542L560.3,682.611h20.139l10.015-31.025h59.22l9.906,31.025H680.7ZM596,634.278l24.058-76.093,24.058,76.093H596Z"/>
  <path id="_9" data-name="9" class="cls-2" d="M432.487,573.317q-3.7-12.411-10.232-20.194a38.006,38.006,0,0,0-15.513-11.267,53.61,53.61,0,0,0-19.54-3.483,52.1,52.1,0,0,0-19.921,3.7,47.528,47.528,0,0,0-15.513,10.07A45.175,45.175,0,0,0,341.7,567.112a47.526,47.526,0,0,0-3.592,18.506,50.932,50.932,0,0,0,2.721,16.927,35.62,35.62,0,0,0,21.663,22.262,52.3,52.3,0,0,0,18.941,3.157,73.064,73.064,0,0,0,19.377-2.449,65,65,0,0,0,15.785-6.478l-0.435,4.464a54.535,54.535,0,0,1-4.464,18.016,36.372,36.372,0,0,1-10.4,13.39,46.441,46.441,0,0,1-17.036,8.327,91.735,91.735,0,0,1-24.276,2.831H346.815v16.546h11.866q18.942,0,33.42-4.572a59.548,59.548,0,0,0,24.275-14.206q9.8-9.635,14.805-24.6t5.008-35.76Q436.189,585.728,432.487,573.317Zm-33.474-16.982a22.035,22.035,0,0,1,9.525,8.11q3.919,5.715,5.988,15.131a111.872,111.872,0,0,1,2.068,23.459,51.454,51.454,0,0,1-6.64,3.7,64.8,64.8,0,0,1-16.166,5.117,47.733,47.733,0,0,1-8.328.762,35.336,35.336,0,0,1-12.41-1.96,21.538,21.538,0,0,1-8.545-5.606,22.678,22.678,0,0,1-4.9-8.872,41,41,0,0,1-1.578-11.866,35.879,35.879,0,0,1,2.177-12.954,27.765,27.765,0,0,1,5.933-9.525,24.883,24.883,0,0,1,8.926-5.878,30.787,30.787,0,0,1,11.267-2.014A32.01,32.01,0,0,1,399.013,556.335Z"/>
  <path id="_8" data-name="8" class="cls-2" d="M197.7,634.06a35.626,35.626,0,0,0-6.259-10.45,51.1,51.1,0,0,0-9.471-8.492,93.292,93.292,0,0,0-11.757-6.966q12.736-6.533,19.649-15.241t6.913-21.118a32.938,32.938,0,0,0-2.831-13.826,27.724,27.724,0,0,0-8.491-10.559,40.835,40.835,0,0,0-13.988-6.7,71.759,71.759,0,0,0-19.322-2.34,61.672,61.672,0,0,0-20.248,2.993,42.806,42.806,0,0,0-14.315,8,33.108,33.108,0,0,0-4.953,44.577q6.422,8.655,20.356,15.731-15.241,7.729-22.534,17.2t-7.293,22.534a32.565,32.565,0,0,0,3.048,14.152,30.694,30.694,0,0,0,9.035,11.1,44.047,44.047,0,0,0,14.86,7.294,72.811,72.811,0,0,0,20.519,2.613,73.22,73.22,0,0,0,19.6-2.5,48.784,48.784,0,0,0,15.676-7.294,33,33,0,0,0,14.043-27.868A35.37,35.37,0,0,0,197.7,634.06Zm-26.289-46.211q-5.989,6.261-18.289,12.029a117.3,117.3,0,0,1-12.192-6.205,51.406,51.406,0,0,1-8.545-6.205,21.114,21.114,0,0,1-5.062-6.749,18.709,18.709,0,0,1-1.633-7.838q0-9.361,6.8-14.043t19-4.681q12.3,0,19.105,4.736t6.8,14.424A20.384,20.384,0,0,1,171.408,587.849Zm5.769,69.452a18.288,18.288,0,0,1-5.933,6.2,27.61,27.61,0,0,1-8.872,3.647,47.576,47.576,0,0,1-10.886,1.2,44.78,44.78,0,0,1-11.1-1.307,26.481,26.481,0,0,1-8.818-3.919,19.453,19.453,0,0,1-5.824-6.368,17.284,17.284,0,0,1-2.123-8.654,25.987,25.987,0,0,1,1.307-8.273,22.875,22.875,0,0,1,4.409-7.566,42.964,42.964,0,0,1,8.164-7.185,92.276,92.276,0,0,1,12.464-7.13,106.584,106.584,0,0,1,14.37,7.62,47.133,47.133,0,0,1,9.035,7.4,21.783,21.783,0,0,1,4.681,7.512,24.006,24.006,0,0,1,1.306,7.838A17.609,17.609,0,0,1,177.177,657.3Z"/>
  <path id="_7" data-name="7" class="cls-2" d="M896.242,308.344H800.01v17.635h76.855L814.924,450.623h21.663l59.655-124.644V308.344Z"/>
  <path id="_6" data-name="6" class="cls-2" d="M665.708,388.356a36.311,36.311,0,0,0-8.11-13.445,37.073,37.073,0,0,0-13.5-8.763,51.9,51.9,0,0,0-18.887-3.157,73.627,73.627,0,0,0-19.431,2.45,64.891,64.891,0,0,0-15.839,6.477l0.435-4.463a56.955,56.955,0,0,1,4.246-17.527,37.144,37.144,0,0,1,9.688-13.389,44.016,44.016,0,0,1,15.676-8.6,71.646,71.646,0,0,1,22.1-3.048h15.241V308.344H643.283a97.41,97.41,0,0,0-25.473,2.994,65.259,65.259,0,0,0-19.1,8.382,52.23,52.23,0,0,0-13.553,12.9,66.611,66.611,0,0,0-8.709,16.546,94.731,94.731,0,0,0-4.681,19.268,153.98,153.98,0,0,0-1.415,21.119q0,16.221,3.157,28.086t9.253,19.649a36.936,36.936,0,0,0,15.132,11.539,53.8,53.8,0,0,0,20.792,3.755,54.97,54.97,0,0,0,20.411-3.646,47.088,47.088,0,0,0,15.73-10.015,44.106,44.106,0,0,0,10.069-14.969,47.882,47.882,0,0,0,3.538-18.4A52.165,52.165,0,0,0,665.708,388.356Zm-19.214,31.188a27.784,27.784,0,0,1-5.878,9.525A24.548,24.548,0,0,1,631.689,435a31.081,31.081,0,0,1-11.375,2.014,33.274,33.274,0,0,1-13.063-2.4,21.726,21.726,0,0,1-9.526-8.056q-3.865-5.66-5.824-15.077a117.78,117.78,0,0,1-1.959-23.459,58.565,58.565,0,0,1,6.749-3.7,71.5,71.5,0,0,1,7.784-3.1A59.734,59.734,0,0,1,612.8,379.1a47.474,47.474,0,0,1,8.382-.762,34.057,34.057,0,0,1,12.356,2.013,22.629,22.629,0,0,1,8.545,5.661,22.357,22.357,0,0,1,4.954,8.927,41.213,41.213,0,0,1,1.578,11.811A35.949,35.949,0,0,1,646.494,419.544Z"/>
  <path id="_5" data-name="5" class="cls-2" d="M426.481,385.58a35.685,35.685,0,0,0-12.193-12.41,51.175,51.175,0,0,0-17.254-6.477,105.943,105.943,0,0,0-19.921-1.851H364.7V324.891h58.784V308.344H346.85v72.718h27q17.853,0,27.378,6.042t9.525,19.322a28.425,28.425,0,0,1-2.612,12.356,26.037,26.037,0,0,1-7.511,9.362,35.013,35.013,0,0,1-11.866,5.932,55,55,0,0,1-15.676,2.069q-7.731,0-15.295-.653a91.441,91.441,0,0,1-13.444-2.069v17.2q2.721,0.433,6.151.762t7.021,0.6q3.593,0.27,7.239.435t6.8,0.163a76.763,76.763,0,0,0,23.514-3.483,60,60,0,0,0,18.887-9.743,45.98,45.98,0,0,0,12.573-14.968,40.807,40.807,0,0,0,4.572-19.268Q431.107,393.363,426.481,385.58Z"/>
  <path id="_4" data-name="4" class="cls-2" d="M208.1,402.507H183.822V308.344H156.607L95.973,402.507v16.656h68.472v31.46h19.377v-31.46H208.1V402.507Zm-43.652,0H114.914l49.531-75.875v75.875Z"/>
  <path id="_3" data-name="3" class="cls-2" d="M891.036,163.117a32.638,32.638,0,0,0-6.967-9.634,38.187,38.187,0,0,0-9.688-6.695A38.819,38.819,0,0,0,863.44,143.3a43.184,43.184,0,0,0,17.146-13.172q6.258-8.271,6.259-20.465a35.438,35.438,0,0,0-2.939-14.7,29.412,29.412,0,0,0-8.709-11.1,40.908,40.908,0,0,0-14.369-7.021A73,73,0,0,0,840.906,74.4q-3.811,0-7.946.381t-8.328,1.089q-4.192.709-8.382,1.742t-7.892,2.341V96.495a129.944,129.944,0,0,1,16.328-4.246,81.108,81.108,0,0,1,14.8-1.415q13.5,0,20.466,5.225t6.967,16.656a26.088,26.088,0,0,1-2.014,10.5A20.921,20.921,0,0,1,859.14,131a26.263,26.263,0,0,1-9.035,4.844,38.276,38.276,0,0,1-11.7,1.688H821.965V153.1h16.22a66.249,66.249,0,0,1,14.424,1.469,36.354,36.354,0,0,1,11.321,4.409,21.746,21.746,0,0,1,7.348,7.294,19.5,19.5,0,0,1,2.613,10.232,29.225,29.225,0,0,1-2.177,11.539,21.167,21.167,0,0,1-6.967,8.709,34.41,34.41,0,0,1-12.356,5.5,75.563,75.563,0,0,1-18.234,1.906q-7.837,0-15.349-.654t-14.261-1.85v16.982q5.879,0.87,12.628,1.415t15.24,0.544a92.02,92.02,0,0,0,26.889-3.538,56.547,56.547,0,0,0,19.159-9.688A40,40,0,0,0,889.893,193a41.283,41.283,0,0,0,3.81-17.58A28.038,28.038,0,0,0,891.036,163.117Z"/>
  <path id="_2" data-name="2" class="cls-2" d="M664.436,200.564H595.311l25.8-25.146q9.145-8.819,15.839-16.22a108.767,108.767,0,0,0,11.1-14.315A58.124,58.124,0,0,0,654.639,131a50.5,50.5,0,0,0,2.177-15.131,46.422,46.422,0,0,0-3.1-17.418,36.233,36.233,0,0,0-8.763-13.063,38.614,38.614,0,0,0-13.444-8.164,50.2,50.2,0,0,0-17.255-2.83q-13.935,0-24.439,5.116a64.036,64.036,0,0,0-18.56,13.607l10.45,12.519a56.33,56.33,0,0,1,13.608-10.45,33.833,33.833,0,0,1,16.438-4.028,27.636,27.636,0,0,1,11.212,2.068,20.194,20.194,0,0,1,7.62,5.661,23.723,23.723,0,0,1,4.355,8.327,34.66,34.66,0,0,1,1.415,9.961,46.661,46.661,0,0,1-1.089,10.342,36.315,36.315,0,0,1-4.245,10.178,82.244,82.244,0,0,1-8.818,11.92q-5.661,6.531-14.7,15.458l-36.794,36.577v16.982h93.727V200.564Z"/>
  <path id="_1" data-name="1" class="cls-2" d="M431.251,201H399.464V75.7H382.7l-45.286,23.84,6.967,16.111,34.073-18.506V201H341.877v17.635h89.374V201Z"/>
</svg>
